# xmcd CD database file
#
# Track frame offsets:
#	150
#	16697
#	38222
#
# Disc length: 768 seconds
#
# Revision: 0
# Processed by: cddbd v1.5.1PL0 Copyright (c) Steve Scherf et al.
# Submitted via: CDex 1.51
#
DISCID=1602fe03
DTITLE=Pealout - Lucky Star - New Soul
DYEAR=1999
DGENRE=Rock
TTITLE0=Lucky Star
TTITLE1=New Soul
TTITLE2=Sad Song
EXTD=YEAR: 1999
EXTT0=
EXTT1=
EXTT2=
PLAYORDER=
